<?xml version="1.0" encoding="utf-8"?>
<!-- Generator: Adobe Illustrator 19.0.1, SVG Export Plug-In . SVG Version: 6.00 Build 0)  -->
<svg version="1.1" id="Lager_1" xmlns="http://www.w3.org/2000/svg" xmlns:xlink="http://www.w3.org/1999/xlink" x="0px" y="0px"
	 viewBox="0 0 2143.2 322.6" style="enable-background:new 0 0 2143.2 322.6;" xml:space="preserve">
<style type="text/css">
	.st0{fill:#FFFFFF;}
	.st1{fill:none;stroke:#000000;stroke-miterlimit:10;}
</style>
<g>
	<path class="st0" d="M54.9,170.4c0-39.7,0-79.4,0-119c545.4,0,1090.9,0,1636.3,0c-0.1,0.9-0.2,1.9-0.2,2.8c0,17.4,0,34.7,0,52.1
		c0,0.9,0,1.9,0,2.9c-1.5,0.2-2.8,0.4-4,0.7c-2,0.4-3.3,1.6-3.6,3.6c-0.4,2.7-2,4.2-4.3,5.3c-5.3,2.5-10.4,5.2-15.7,7.8
		c-8.9,4.2-17.7,8.5-27,11.9c-8.6,3.2-17.2,6.6-25.7,9.9c-0.6,0.2-1.3,0.6-1.9,0.8c0,2,0.2,3.9,0,5.7c-0.3,2.9,1,4.6,3.3,6.1
		c7.8,5,15.5,10.2,23.2,15.4c9.4,6.4,18.8,12.8,28.1,19.3c5.8,4,8.7,9.7,8.7,16.7c-0.1,24.4-0.1,48.8-0.2,73.2c0,13.7,0,27.4,0,41
		c0,0.7,0.1,1.4,0.2,2.1c14.5,0,28.9,0,43.5,0c0-1.2,0-2.2,0-3.3c0-37.4,0-74.7,0-112.1c0-2.4,0.3-4.8,0.8-7.1
		c0.6-2.6,1.7-5.2,4-6.9c12.8-9.3,25.4-18.9,38.7-27.5c5.4-3.5,10.6-7.2,16-10.6c2.5-1.6,4-3.6,3.5-6.7c0-0.3,0-0.6,0-1
		c0-4.1-0.1-4.1-3.8-5.6c-11.7-4.7-23.3-9.3-34.9-14c-10.8-4.4-21.2-9.6-31.6-15.1c-2.1-1.1-3.8-2.5-4.3-5.1
		c-0.6-3.1-1.7-3.9-4.9-4.2c-0.8-0.1-1.7-0.2-2.6-0.3c0-19.5,0-38.7,0-57.8c145.3,0,290.6,0,435.8,0c0,52.5,0,105,0,157.4
		c-1.7-1.1-3.4-2.3-5.2-3.3c-3.3-1.9-6.7-3.7-10.1-5.5c-2.3-1.3-2.5-2.9-0.9-5c0.9-1.2,1.9-2.3,2.9-3.6c-1.4-1-2.6-1.7-3.7-2.7
		c-1-1-2.1-2.1-2.7-3.3c-0.8-1.6-1.3-3.5-1.6-5.3c-0.7-4.3-2.1-8.2-5-11.5c-0.2-0.2-0.3-0.4-0.4-0.6c-3.8-5-8.7-8.3-14.7-10.1
		c-2.9-0.9-3.3-1.2-2.6-4.2c0.3-1.1,0.8-2.2,1.3-3.3c0.4-0.8,0.9-1.5,1.3-2.2c-0.4-0.4-0.5-0.7-0.8-0.9c-1.6-1.1-2-2.6-2.1-4.5
		c-0.5-5.2-2.8-9.4-7.4-12.3c-0.8-0.5-1.5-1-2.4-1.6c1-1.2,1.7-2.1,2.6-3.2c-1-0.7-1.8-1.4-2.7-2c-1.1-0.7-1.5-1.6-1.7-2.9
		c-0.3-3.7-0.8-7.5-1.2-11.2c-0.6-6.5-1.9-13-1.5-19.6c0-0.5-0.1-1.1-0.2-1.6c-1.6,0-3.1,0-4.8,0c0,1,0,1.7,0,2.5
		c-0.4,9.2-1,18.4-1.2,27.5c-0.1,3.2-0.9,5.7-3.6,7.6c-0.1,0.1-0.2,0.3-0.3,0.4c0.1,0.2,0.2,0.4,0.3,0.6c2.2,3,2.2,3-0.5,5.5
		c-0.8,0.8-1.5,1.7-2.3,2.4c-2.1,1.8-3.1,4.3-3.7,6.9c-1,4.4-1.9,8.7-1.6,13.3c0.1,1.3,0.1,2.6,0,3.8c0,0.6-0.3,1.3-0.7,1.6
		c-1.6,1.1-3.2,1.9-5.1,3.1c-0.2-2.5-0.3-4.7-0.5-6.9c-2.2,0-4.2,0-6.4,0c-0.1-1.9-0.2-3.7-0.3-5.7c-2,0-3.8,0-5.9,0
		c0-2.5,0-4.7,0-7.3c-2.8,0-5.2,0-7.9,0c0-2.2,0-4,0-5.9c-4.5,0-8.6,0-13.1,0c0,2.4,0,4.6,0,7.1c-2.4,0-4.5,0-6.8,0
		c0,1.8,0,3.2,0,5.1c-1.5-1.1-2.7-1.9-4-2.9c-1,1.2-1.8,2.3-2.8,3.2c-1.6,1.5-2.5,3.2-2.2,5.5c0,0.1-0.1,0.3-0.4,0.6
		c-6.3,0.2-12.7,0.4-19.1,0.6c-0.2-0.9-0.3-1.5-0.5-2c-0.7-0.2-1.3-0.3-1.9-0.5c-0.1-1-0.3-1.8-0.4-2.6c-3.2,0-6.3,0-9.6,0
		c0,2.4,0,4.6,0,6.9c-9.6,1.3-19.1,2.2-28.4,2.7c-0.4-1-0.4-2.1-1-2.6c-2-1.9-4.2-3.7-6.5-5.7c-1.3,1.4-2.3,2.7-3.6,3.8
		c-1.6,1.4-2.5,2.8-1.9,5c0,0.1-0.1,0.3-0.2,0.6c-7.5,0.6-15,0.9-22.6,0.9c-0.1-1-0.2-1.8-0.3-2.6c-0.7-0.2-1.2-0.4-1.8-0.5
		c-0.1-0.4-0.1-0.8-0.1-1.1c-0.1-0.4-0.1-0.7-0.2-1.1c-2.9,0-5.7,0-8.4,0c-0.1,0.8-0.2,1.4-0.3,2c-0.9,0.1-1.8,0.3-2.9,0.4
		c0,1.7,0,3.4,0,5.2c-1.2,0.2-2.7,0.7-3.1,0.3c-0.9-1.2-2-0.8-3-0.8c-2.4,0-4.8,0-7.2,0.1c-0.3,0-0.6,0.1-0.9,0.2
		c-0.2,0.7-0.4,1.4-0.5,2.1c-0.9,0.1-1.7,0.1-2.5,0.2c-0.5,0.1-1.1,0.2-1.5,0.5c-2.1,1.6-4.2,3.2-6.3,4.8c-4.3,3.2-8.5,6.6-12.9,9.5
		c-3.3,2.2-6.5,4.6-9.6,7.2c-1,0.9-2.1,1.6-2.9,2.1c-3.3-2.9-6.2-5.6-9.2-8.1c-3.5-2.9-7-5.7-10.5-8.7c-0.4-0.4-0.7-1.1-0.8-1.6
		c-0.5-2.9-1.2-5.6-3-8c-0.7-1-0.9-2-0.9-3.1c0-4.1,0-8.2,0-12.2c0-0.7-0.1-1.4-0.2-2.1c-1.7,0-3.1,0-4.9,0c0,0.9,0,1.7,0,2.5
		c0,3.8,0,7.5,0,11.3c0,1.1-0.2,2.2-0.4,3.3c-0.4,1.9-0.9,3.7-1.2,5.6c-0.4,2.5-1.7,4.4-3.8,5.8c-1.8,1.1-3.7,2.3-5.5,3.5
		c-3.3,2.2-6.5,4.7-9.9,6.8c-3.5,2.1-5.8,5.2-7.9,8.5c-0.6,1-0.7,2.4-1.1,3.6c-0.3,1.1-0.6,2.3-1.1,3.4c-0.7,1.4-1.9,2.3-3.3,3
		c-0.7,0.4-1.8,1-1.8,1.5c0.1,2.1-1.4,4.4,0.6,6.4c0.3,0.3,0,1.5-0.3,2.1c-0.3,0.5-1,0.7-1.6,1c-3.8,2.2-7.6,4.5-11.3,6.7
		c-0.8,0.5-1.4,1-1.3,2c0.1,1.5,0.2,3,0.3,4.6c1.4-0.2,1.5,1.3,2.2,1.6c1.5,0.7,1.2,1.7,1.1,2.7c-0.1,4.4-0.3,8.8-0.4,13.2
		c-0.2,9.8-0.4,19.5-0.6,29.3c-0.3,11.7-0.5,23.3-0.8,35c0,1.2-0.1,2.3-0.1,3.8c-3.4,0-6.6,0-9.8,0c0,4.4,0,8.6,0,12.9
		c5.8,0.1,11.5,0.3,17.2,0.4c12.6,0.2,25.3,0.3,37.9,0.5c12.9,0.2,25.7,0.3,38.6,0.5c12.7,0.2,25.4,0.3,38.1,0.5
		c12.9,0.2,25.7,0.3,38.6,0.5c12.7,0.2,25.4,0.3,38.1,0.5c12.9,0.2,25.7,0.3,38.6,0.5c12.7,0.2,25.4,0.3,38.1,0.5
		c12.9,0.2,25.7,0.3,38.6,0.5c8.3,0.1,16.6,0.1,25,0.2c0.8,0,1.5,0.3,2.3,0.4c-682.9,0-1365.8,0-2048.6,0c0-1.1,0-2.2,0-3.4
		c1.1,0,2.2-0.1,3.4-0.1c95.8,0,191.5,0,287.3,0c75.8,0,151.5,0,227.3,0c1,0,2,0,3.3,0c-0.9-42.2-1.8-84.1-2.7-126
		c1.6-0.1,2.9-0.2,4.6-0.3c-1.5-2.4-3.2-4.5-4.1-6.8c-1-2.4-1.3-5-2-7.6c-0.8-0.1-1.6-0.2-2.6-0.3c-0.6-10.4-2.7-20.4-4.3-30.5
		c-2.6-0.7-5-1.3-7.7-2c-0.9,8.6-3.2,16.7-3.1,25.1c0.9,0.2,1.6,0.3,2.2,0.4c0,2.1,0,4.1,0,6.1c-2.6,0-5,0-7.4,0
		c-0.3,0-0.6-0.1-0.9-0.2c-7.3-2.5-14.7-4.9-21.9-7.7c-10.5-4-21-8.2-31.4-12.5c-2.7-1.1-5.4-1.6-8.3-1.6
		c-10.2,0.3-20.3,0.2-30.5,0.2c-0.8,0-1.6-0.1-2.6-0.1c-0.2-2.3-0.3-4.4-0.5-6.5c-0.3-2.9-0.3-5.9-0.9-8.8
		c-1.4-7.5-2.9-15.1-4.5-22.6c-0.1-0.4-0.3-0.8-0.5-1.2c-0.1,0-0.2,0-0.3,0.1c-1,10.2-2,20.4-3,30.6c-1,0-1.8,0-2.7,0
		c0-3.2,0-6.3,0-9.5c0.7-0.5,1.4-1.1,2.2-1.7c-0.9-2.2-1.4-4.4-2.7-6.2c-1.1-1.5-1.1-3-1.2-4.7c0-2.2-0.1-4.3-0.2-6.5
		c-0.7-8.4-1.4-16.7-2.2-25.1c-0.3-3.3-0.6-6.6-0.9-10c-0.1,0-0.3,0-0.4,0c-1.6,13-3.2,25.9-4.8,39.1c-4,0-8,0-12.1,0
		c-1.1-11.3-2.2-22.4-3.3-33.5c-1.6,7-2.8,14-3.9,21.1c-0.9,5.5-2.4,11-1.9,16.6c0.4,3.7-2,6-3.6,8.7c-0.2,0-0.3,0-0.5-0.1
		c-0.9-7.3-1.9-14.7-2.8-22c-1,4.7-1.7,9.3-2.3,14c-0.6,4.8-1.4,9.5-1.8,14.3c-0.4,4.7-0.5,9.3-0.7,14.1c-1.1,0-2,0-3,0
		c-15.4-0.2-30.9-0.4-46.3-0.5c-35.4-0.1-70.7-0.1-106.1-0.1c-0.3,0-0.6,0-1,0c-0.6,0-1.2-0.1-2.1-0.2c0.9-13.2-2-26-3.2-39
		c0-0.5-0.2-0.9-0.3-1.4c0,0-0.1-0.1-0.2-0.1c-0.1,0-0.1,0-0.3,0.1c-1.5,11.4-4,22.7-4.9,34.3c-1,0-1.8,0-2.9,0c0-2.3,0.2-4.7,0-7
		c-0.3-2.8,0.2-5,2.9-6.4c0.1-0.1,0.1-0.3,0.2-0.3c-1-1.8-2.5-3.5-2.9-5.4c-0.5-2-0.1-4.3-0.1-6.5c0-1.6,0-3.2,0-4.8
		c0-1-0.1-1.9-0.3-2.8c-1.5-7.9-3-15.7-4.5-23.5c-0.1-0.4-0.4-0.7-0.7-1.5c-1.4,11.1-2.7,21.7-4,32.2c-4,0-8.1,0-12.1,0
		c-1.3-11.5-2.6-22.7-3.8-33.9c-0.5,0.4-0.7,0.8-0.8,1.3c-1.3,7.7-2.6,15.5-3.8,23.2c-0.5,2.9-0.8,5.8-0.9,8.8c-0.1,2,0.2,4,0.5,6
		c0.2,1.1-0.1,2-0.8,2.9c-0.9,1.2-1.7,2.4-2.7,3.8c2.8,1.8,2.7,4.5,2.7,7.1c0,2.4,0,4.9,0,7.3c-1.3,0-2.2,0-3.4,0c0-1.3,0-2.5,0-3.7
		c0-1.2-0.1-2.4-0.3-3.6c-1-6.3-2-12.6-3.1-18.9c-0.5-2.9-1-5.9-1.5-8.8c-0.2,0-0.4,0-0.5,0c-0.4,4.4-0.8,8.8-1.3,13.2
		c-0.4,4.5-1,9.1-1.3,13.6c-0.3,4.4-0.4,8.9-0.6,13.3c-0.6,0-1,0.1-1.4,0.1c-6.9,0.1-13.8,0.2-20.6,0.2c-7.4,0.1-14.7,0.1-22.1,0.2
		c-1.4,0-2.9,0.3-4.1,0.9c-11.6,5-23.2,10-34.8,15.1c-0.8,0.3-1.6,0.7-2.4,1c-4.1-3.6-8-7.1-12-10.6c-0.8-0.7-0.9-1.4-0.9-2.3
		c0-1.8,0-3.6,0-5.4c-4.1-0.4-7.8-0.7-11.5-1c-1.2-5.1-2.3-10-3.5-14.8c-0.1,0-0.3,0-0.4-0.1c-1.4,3.7-2.7,7.4-4.1,11.2
		c-2.5,0.1-4.8,0.3-7.4,0.4c0,3,0,5.8,0,8.7C57.7,169.3,56.3,169.8,54.9,170.4z M774.1,327.3c1,0,1.8,0.1,2.6,0.1
		c4.8,0,9.6,0,14.4-0.1c15.5-0.1,31-0.2,46.5-0.2c7.9,0,15.8-0.1,23.8-0.2c12.1,0,24.2,0,36.2-0.1c11.4-0.1,22.7-0.2,34.1-0.2
		c8-0.1,16-0.1,24-0.2c7.8,0,15.5,0,23.3-0.1c15.8-0.1,31.5-0.2,47.3-0.2c7.8,0,15.5-0.1,23.3-0.2c24.7-0.1,49.4-0.3,74.1-0.3
		c23.8-0.1,47.7,0,71.5,0c0.9,0,1.9,0,2.8-0.1c0-21.2,0-42.2,0-63.1c-0.4-0.2-0.7-0.3-1-0.4c-5.4-1.8-10.8-3.6-16.2-5.4
		c-0.7-0.2-1.6-0.4-2.3-0.4c-6.2,0-12.5,0-18.7,0c-0.6,0-1.2,0.1-2,0.2c0,3.3,0,6.5,0,10c-8.1-1.5-15.9-3-23.9-4.4
		c-1.1-28.8-2.2-57.3-3.3-85.8c1.6-0.9,3-1.7,4.6-2.6c-0.4-3.8-0.8-7.6-1.1-11.2c-3.3-1.7-6.2-3.3-9.3-4.9c0-11.7,0-23.3,0-35
		c-2.3,0-4.4,0-6.7,0c0,10.3,0,20.3,0,30.4c0,0.1-0.1,0.1-0.1,0.2c-0.1,0-0.1,0.1-0.4,0.2c-1.6-0.9-3.2-1.8-4.9-2.7
		c-0.9-0.5-1.2-1.1-1.2-2.1c0.1-2.6-0.1-5.3,0.1-7.9c0.1-1.6-0.6-2.4-1.9-3.2c-5.5-3.2-11.1-6.4-16.5-9.8c-1.6-1-2.8-1-4.4-0.3
		c-10.5,4.2-21.1,8.3-31.7,12.5c-8.3,3.2-16.5,6.5-24.8,9.7c-2,0.8-2,0.8-2.1,2.9c0,0.9,0,1.9,0,2.9c-6.2,2.8-12.3,5.5-18.3,8.2
		c0,2.5,0,4.7,0,6.9c1.1,0.4,2.1,0.8,3.6,1.3c-3,1.2-5.5,2.2-7.9,3.2c0,2.2,0,4.2,0,6.2c1.4,0.5,2.7,1,4,1.4
		c0.6,6.1,1,71.4,0.4,73.3c-0.6,0-1.2,0-1.8,0c-0.7,0-1.4-0.1-2.1-0.2c-0.9-38.6-1.9-77-2.8-115.3c2.8-1.5,2.8-1.5,3.6-4.5
		c0.1-0.5,0.3-0.9,0.3-1.4c0.3-2.5-0.1-4.4-2.4-6.1c-20.9-15.9-41.6-32-62.4-48c-0.7-0.6-1.5-1.1-2.2-1.6
		c-25.4,9.7-50.6,19.3-76.1,28.9c1.5,2.3,2.8,4.4,4.2,6.4c1.1,1.5,1.5,3,1.5,4.9c0,15,0.1,29.9,0.1,44.9c0,36.9,0.1,73.8,0.1,110.6
		c0,0.6-0.1,1.2-0.2,1.9c-4.2,0.7-8.2,1.4-12.3,2.1c-0.1,1.9-0.2,3.7-0.3,5.5c-6.3,0.8-12.4,1.6-18.6,2.4c-0.1,2.1-0.2,4.1-0.3,6.1
		c-1.2,0-2.2,0-3.1,0c-0.5-0.8-1-1.5-1.5-2.2c-4.3-4.7-8.6-9.4-12.9-14.2c-0.9-1-1.7-1.1-2.9-0.9c-11.2,2.4-22.4,4.7-33.5,7.1
		c-2.3,0.5-4.6,1-6.9,1.5c-0.1,0.5-0.1,0.8-0.1,1c0.3,6.1,0.7,12.1,1.1,18.2c0.1,1.5-0.1,2.8-1,4.1c-1.6,2.4-3,4.9-4.5,7.3
		c-0.3,0.5-0.8,1.1-0.8,1.7C774,319.9,774.1,323.5,774.1,327.3z M1440.8,190.1c6.3,0,12.3,0.1,18.3,0c9.2-0.1,18.4-0.3,27.6-0.4
		c1.4,0,2.4,0.4,3.3,1.4c3.2,3.3,6.4,6.5,9.7,9.7c1.3,1.2,2.1,2.5,2,4.4c0,1.4,0.3,2.9,0.4,4.3c0.3,2.4,0.6,4.7,0.9,7.1
		c1.1-4.3,1.8-8.6,2.5-12.9c0.7-4.3,1.3-8.5,2.1-12.8c0.7-4.2,1.2-8.5,2.3-13.2c4.5,10.6,6.1,21.6,11.7,31.2c-1,4.2-1.2,6.2-0.6,10
		c0.1,0.8,0.2,1.6,0.3,2.4c0.7,4.8,1.3,9.6,2,14.6c0.6-0.2,1.1-0.3,1.5-0.5c2-1,3.9-2.2,6-3.1c1.9-0.8,2.6-2,2.2-3.9
		c-0.1-0.3-0.1-0.6-0.1-1c-0.2-1.1,0.2-1.9,1.2-2.6c3.3-2.2,6.6-4.4,9.9-6.8c1.1-0.8,2-0.9,3.3-0.3c5.8,2.3,11.6,4.6,17.4,6.8
		c1,0.4,2.2,0.6,3.3,0.6c2.7,0,5.4-0.1,8.1-0.3c2.8-0.2,5.3,0.2,7.8,1.7c2.2,1.3,4.5,2.4,6.9,3.4c1,0.4,2.1,0.8,3.2,0.8
		c3.6,0,7.2,0,10.8-0.2c1.1-0.1,2.2-0.5,3.1-1c1.4-0.7,2.7-1.6,4.3-2.5c1.4,3.2,3.9,3.9,7.1,3.1c1.7,31.2,3.5,62.2,5.2,93.2
		c1.8-0.1,3.3-0.2,5-0.3c-1.8-32.7-3.6-65.2-5.4-97.9c-2,0-3.6-0.1-5.3,0c-1.2,0.1-2.1-0.3-2.8-1.3c-0.8-1.2-1.8-2.3-2.7-3.5
		c-1.3,0.8-2.5,1.4-3.6,2.2c-3.1,2.3-6.5,3.2-10.5,3.1c-3.7,0-7.1-0.3-10.3-2.4c-4.6-3-9.6-4.1-15-3.4c-4.5,0.5-8.9-0.1-13-2.3
		c-1-0.5-2.1-0.8-3.1-1.2c-4.3-1.7-8.6-3.4-12.9-5c-5.4,3.7-10.7,7.3-16,10.9c-0.8,0.5-1,1.1-1,2c0,1.1,0,2.2,0,3.3
		c-0.5-0.2-0.7-0.4-0.7-0.6c-0.5-3.6-1-7.1-1.5-10.7c-0.1-0.4-0.1-0.8,0-1.2c0.4-2.6,0.8-5.2,2.7-7.2c0.1-0.1,0.1-0.4,0.1-0.7
		c-0.5-0.4-0.9-0.8-1.3-1c-1.8-1-2.8-2.5-3.5-4.4c-1.2-3.6-2.6-7.2-3.9-10.8c-1.6-4.6-2.9-9.3-4.7-13.8c-1.9-4.5-2.5-9.2-3-13.9
		c-0.3-3-0.6-6-0.9-9.2c-1.7,0.1-3.2,0.1-4.8,0.2c0,2.2-0.1,4.2,0,6.1c0.1,4.1-0.2,8.3-1,12.3c-0.5,2.4-0.4,4.9-1.9,7
		c-0.7,1-0.6,2.6-0.9,3.9c-0.7,3.4-1.4,6.8-2.1,10.6c-2.3-2.3-4.3-4.2-6.2-6.2c-3.6-3.6-3.6-3.6-8.7-3.5
		c-12.6,0.3-25.3,0.4-37.9,0.6c-0.8,0-1.6,0-2.4,0c-1.3-7-2-13.8-3.8-20.5c-0.6,3-1.1,6-1.7,8.9c-0.7-0.7-1-1.5-1.3-2.2
		c-2.7-7.4-5.3-14.7-8.1-22.1c-0.8-2.2-1.7-4.3,0.4-6.7c-2.6-0.7-4.9-1.3-7.4-2c-3.4,10.7-5.5,21.5-8.6,32.2
		c-10.8,0-21.6,0.5-32.4,0.4c0-11.7,0-23.1,0-34.6c-1.7,0-3.2,0-4.9,0c-0.2,6-0.3,11.8-0.5,17.6c-0.2,5.8,0,11.6-0.5,17.3
		c-12,0-23.8,0-35.6,0c-2.2-6.4-4.7-12.7-6.6-19.1c-1.9-6.5-3-13.2-4.5-19.8c-2.2,7.6-4.1,15.2-6.5,22.7c-2.4,7.6-5.3,15-8,22.5
		c-1.2,0.2-2.3,0.4-3.3,0.5c-0.3,2-0.6,4-1,6.1c-1.1,0.1-2.1,0.2-3.2,0.2c-13.6,0.1-27.2,0.2-40.8,0.2c-1.4,0-2.4,0.4-3.4,1.4
		c-2.6,2.7-5.3,5.3-8,7.9c-0.4,0.3-0.8,0.6-1.4,0.9c-2.2-12.5-4.3-24.8-6.4-37c-0.7,0.7-1,1.4-1.2,2.1c-4.7,13.9-9.5,27.8-14.2,41.8
		c-0.5,1.4-1.1,2.8-2.2,3.9c-1.1,1.1-1.8,2.6-2.6,3.9c0.7,1.1,1.7,1.9,1.8,2.9c0.4,2.3,0.5,4.7,0.4,7.1c-0.1,3.9-0.5,7.8-0.8,11.7
		c-0.2,2.3,0.2,4.8-2.7,6.1c2,1.6,1.9,3.5,1.8,5.4c-0.7,11.4-1.2,22.8-2.1,34.2c-0.2,2.7,0.4,4.7,2.4,6.2c1.8,1.4,2.2,3.1,2,5.2
		c-0.7,10-1.4,20.1-2,30.1c0,0.6,0,1.2,0,2c1.7,0.1,3.2,0.2,4.7,0.3c0.1-0.5,0.2-0.7,0.2-1c0.8-11.4,1.5-22.8,2.4-34.2
		c0.1-1.8-0.3-3.1-1.7-4.2c-2.3-1.7-2.9-3.8-2.7-6.8c1-13.1,1.7-26.3,2.5-39.5c0.3-5.7,0.6-11.3,1.2-17c0.3-3.2-0.6-6.3-0.8-9.7
		c1.9-1,2.3-3.2,3-5.2c2.7-7.9,5.4-15.9,8.1-23.8c0.2-0.5,0.5-0.9,0.9-1.6c1.6,9.4,3.2,18.3,4.8,27.6c0.8-0.8,1.4-1.2,1.9-1.7
		c4.3-4.2,8.6-8.4,12.8-12.7c1.1-1.1,2.2-1.6,3.8-1.6c13,0,25.9-0.1,38.9-0.2c2.4,0,4.7-0.2,7.1-0.3c0.4-2.3,0.7-4.3,1.1-6.4
		c2.1,0.3,2.8-0.9,3.3-2.5c1.9-5.7,4-11.3,6-16.9c1.1-3.1,2.2-6.1,3.5-9.8c2.8,7.9,5.3,15.2,7.9,22.7c0.7,0,1.4,0.1,2,0.1
		c7.9,0.1,15.8,0.1,23.8,0.2c9,0,18-0.1,27.1-0.6c7.6-0.4,15.2-0.2,22.8-0.2c2,0,4-0.2,6.1-0.3c2.2-8.7,4.4-17.2,6.6-25.8
		c0.2,0,0.3,0,0.5,0c3.9,10.6,7.8,21.2,11.6,31.7c0.9,0.1,1.5,0.2,2.2,0.2C1440.1,186.1,1440.4,188.1,1440.8,190.1z M597.3,325.4
		c3.3,0.5,166.2,0.4,167.9-0.1c0-14.4,0-28.7,0-43.2c-2.4-1.4-4.8-2.8-7.3-4.1c-1.1-0.6-1.7-1.4-1.5-2.7c0.1-1,0-2.1,0-3.1
		c0.1-1.1-0.3-1.8-1.2-2.4c-2-1.4-3.8-2.9-5.8-4.3c-1.3-1-2.7-2-4.1-3c-1.3,2.3-2.5,4.4-3.6,6.4c-1.3-0.3-2.3-0.5-3.6-0.8
		c0-4.8,0-9.5,0-14.4c-1.5-0.1-2.8-0.2-4.1-0.2c-0.3-6.3,0.2-12.5-0.3-18.9c-2.2,0-4.2,0-6.2,0c-0.2-0.6-0.4-1.1-0.5-1.6
		c-0.9-5-1.6-10.1-2.6-15.1c-0.4-2-0.7-4.1-1.6-6c-1.8-4-3.9-7.9-6-11.8c-0.4-0.7-0.8-1.5-1.2-2.2c-0.2,0-0.3,0.1-0.5,0.1
		c0,5.3,0,10.6,0,15.9c-4.6,0-8.8,0-13.1,0c-0.1-0.5-0.2-0.8-0.2-1.1c-0.3-3.8-0.6-7.6-0.9-11.5c-0.3-3.9-0.4-7.8-1.1-11.7
		c-1.1-6.4-2.7-12.7-3.9-19c-1.9-10.1-4.9-20-5.7-30.4c-0.6-0.2-1.4-0.3-2.2-0.5c-3.2-17.9-6.5-35.8-9.7-53.6
		c-3.6,17.9-6.5,35.8-9.7,53.8c-1.7-0.6-2.5-2.1-4.2-2.5c0,1,0,1.8,0,2.6c0,6,0,12,0,18c0,2.2-0.6,4.3-1.6,6.4c-0.9-2-1.9-4.1-3-6.6
		c-0.3,1.2-0.5,1.8-0.6,2.4c-1.3,7.2-2.5,14.5-3.8,21.7c-1,5.6-1.8,11.2-1.5,16.9c0.1,1.8,0,3.7,0,5.5c0.1,1.2-0.3,2-1.4,2.5
		c-1.2,0.6-1.4,1.5-1.4,2.8c0.1,1.7,0,3.3,0,5.2c-3.8,0-7.2,0-10.8,0c-1.5-4.9-3-9.8-4.5-14.8c-0.3,0.3-0.5,0.4-0.6,0.5
		c-1.8,4.7-3.5,9.4-5.2,14.2c-0.2,0.4-0.2,0.9-0.3,1.4c-0.5,4-1,8.1-1.5,12.1c-0.3,2.1-0.6,4.2-0.9,6.3c-2.2-0.2-4.1-0.4-6.2-0.7
		c0,5.6,0,10.9,0,16.2c-2.4,0.2-4.5,0.4-6.8,0.6c0,6.4,0,12.6,0,18.8c-1.6,0.6-2.8,0.3-3.8-0.9c-0.8-0.9-1.7-1.7-2.5-2.5
		c-0.4-0.4-0.9-0.9-1.3-0.9c-2.3-0.1-4.6,0-6.9,0C599,285.4,598.2,305.3,597.3,325.4z"/>
	<path d="M54.9,170.4c1.4-0.6,2.8-1.2,4.2-1.8c0-2.9,0-5.7,0-8.7c2.5-0.1,4.9-0.3,7.4-0.4c1.4-3.8,2.7-7.5,4.1-11.2
		c0.1,0,0.3,0,0.4,0.1c1.1,4.9,2.3,9.7,3.5,14.8c3.7,0.3,7.4,0.6,11.5,1c0,1.8,0.1,3.6,0,5.4c0,0.9,0.1,1.7,0.9,2.3
		c4,3.4,7.9,6.9,12,10.6c0.8-0.3,1.6-0.7,2.4-1c11.6-5,23.1-10.1,34.8-15.1c1.3-0.5,2.8-0.9,4.1-0.9c7.4-0.1,14.7-0.1,22.1-0.2
		c6.9-0.1,13.8-0.2,20.6-0.2c0.4,0,0.8,0,1.4-0.1c0.2-4.5,0.3-8.9,0.6-13.3c0.3-4.5,0.9-9.1,1.3-13.6c0.4-4.4,0.9-8.8,1.3-13.2
		c0.2,0,0.4,0,0.5,0c0.5,2.9,1,5.9,1.5,8.8c1,6.3,2.1,12.6,3.1,18.9c0.2,1.2,0.2,2.4,0.3,3.6c0,1.2,0,2.4,0,3.7c1.2,0,2.1,0,3.4,0
		c0-2.4,0-4.9,0-7.3c0-2.6,0.1-5.3-2.7-7.1c1-1.4,1.8-2.7,2.7-3.8c0.7-0.9,0.9-1.7,0.8-2.9c-0.3-2-0.6-4-0.5-6
		c0.1-2.9,0.5-5.9,0.9-8.8c1.2-7.7,2.5-15.5,3.8-23.2c0.1-0.4,0.3-0.9,0.8-1.3c1.3,11.2,2.5,22.4,3.8,33.9c4,0,8.1,0,12.1,0
		c1.3-10.6,2.6-21.2,4-32.2c0.4,0.8,0.7,1.1,0.7,1.5c1.5,7.8,3,15.7,4.5,23.5c0.2,0.9,0.3,1.9,0.3,2.8c0,1.6,0,3.2,0,4.8
		c0,2.2-0.4,4.4,0.1,6.5c0.5,1.9,1.9,3.6,2.9,5.4c0,0.1-0.1,0.3-0.2,0.3c-2.7,1.3-3.2,3.6-2.9,6.4c0.2,2.3,0,4.6,0,7
		c1.1,0,2,0,2.9,0c0.9-11.6,3.4-22.9,4.9-34.3c0.2-0.1,0.2-0.1,0.3-0.1c0.1,0,0.2,0.1,0.2,0.1c0.1,0.5,0.3,0.9,0.3,1.4
		c1.3,12.9,4.1,25.7,3.2,39c0.9,0.1,1.5,0.2,2.1,0.2c0.3,0,0.6,0,1,0c35.4,0,70.7,0,106.1,0.1c15.4,0,30.9,0.3,46.3,0.5
		c1,0,1.9,0,3,0c0.2-4.8,0.3-9.5,0.7-14.1c0.4-4.8,1.2-9.5,1.8-14.3c0.6-4.7,1.2-9.3,2.3-14c0.9,7.3,1.9,14.7,2.8,22
		c0.2,0,0.3,0,0.5,0.1c1.6-2.7,4-4.9,3.6-8.7c-0.6-5.6,1-11.1,1.9-16.6c1.1-7,2.3-14,3.9-21.1c1.1,11.1,2.2,22.2,3.3,33.5
		c4.1,0,8.1,0,12.1,0c1.6-13.2,3.2-26.1,4.8-39.1c0.1,0,0.3,0,0.4,0c0.3,3.3,0.6,6.6,0.9,10c0.7,8.4,1.5,16.7,2.2,25.1
		c0.2,2.1,0.2,4.3,0.2,6.5c0,1.6,0,3.1,1.2,4.7c1.3,1.7,1.8,4,2.7,6.2c-0.8,0.6-1.6,1.2-2.2,1.7c0,3.2,0,6.3,0,9.5
		c0.9,0,1.7,0,2.7,0c1-10.2,2-20.4,3-30.6c0.1,0,0.2,0,0.3-0.1c0.2,0.4,0.4,0.8,0.5,1.2c1.5,7.5,3.1,15,4.5,22.6
		c0.5,2.9,0.6,5.9,0.9,8.8c0.2,2.1,0.3,4.3,0.5,6.5c1,0,1.8,0.1,2.6,0.1c10.2,0,20.3,0,30.5-0.2c3-0.1,5.6,0.5,8.3,1.6
		c10.4,4.2,20.9,8.5,31.4,12.5c7.2,2.7,14.6,5.1,21.9,7.7c0.3,0.1,0.6,0.2,0.9,0.2c2.4,0,4.8,0,7.4,0c0-2,0-3.9,0-6.1
		c-0.6-0.1-1.2-0.2-2.2-0.4c-0.1-8.4,2.2-16.5,3.1-25.1c2.7,0.7,5.1,1.3,7.7,2c1.7,10.1,3.7,20.2,4.3,30.5c1,0.1,1.8,0.2,2.6,0.3
		c0.6,2.6,1,5.2,2,7.6c1,2.3,2.6,4.3,4.1,6.8c-1.7,0.1-3,0.2-4.6,0.3c0.9,42,1.8,83.9,2.7,126c-1.3,0-2.3,0-3.3,0
		c-75.8,0-151.5,0-227.3,0c-95.8,0-191.5,0-287.3,0c-1.1,0-2.2,0-3.4,0.1C54.9,276.7,54.9,223.5,54.9,170.4z M60.3,324.2
		c2.8,0.6,508.8,0.5,510.6-0.1c0-1.5,0-3,0-4.5c-0.1-5-0.3-9.9-0.4-14.9c-0.2-10.1-0.4-20.1-0.6-30.2c-0.3-11.9-0.6-23.8-0.8-35.7
		c-0.2-8.9-0.4-17.7-0.5-26.6c-0.1-4.1-0.3-8.2-0.2-12.2c0.1-2-0.2-3.9-0.6-5.9c-1-0.1-1.9-0.2-3-0.3c-0.8-9.1-1.6-18.2-3.9-27
		c-0.5,3-0.9,6.1-1.4,9.1c0.9,0.1,1.5,0.1,2.4,0.1c-0.1,5.6-0.3,11.2-0.4,16.7c-4.6,0-8.9,0-13.1,0c-0.5,0-1-0.2-1.4-0.3
		c-7.1-2.4-14.3-4.7-21.3-7.4c-11.3-4.3-22.6-8.9-33.9-13.4c-1.1-0.4-2.3-0.8-3.5-0.8c-12.6,0-25.1,0.1-37.7,0.1
		c-0.6,0-1.2-0.1-1.9-0.2c-0.3-2.7-0.5-5.3-0.8-8c-4.1-0.2-8,0.1-11.9-0.2c0-5.7,0-11,0-16.4c0-0.4,0-0.9,0.2-1.1
		c1.1-1.2,0.5-2.1-0.5-2.7c-1.1-0.7-1.4-1.6-1.3-2.9c0-0.4-0.1-0.8-0.2-1.2c-6.5,0-12.8,0-19.5,0c0.4,2.9-0.7,5.1-2.3,7.2
		c1.8,1,1.9,2.6,2,4.2c0.1,3.3,0.1,6.6,0.1,9.8c0,1.3,0,2.5,0,3.9c-3.8,0-7.3,0-11.1,0c0,1.3,0.1,2.5,0,3.7c-0.1,0.7-0.4,1.5-0.9,2
		c-1.2,1.4-2.8,2.1-4.8,2c-7.2-0.2-14.4-0.3-21.6-0.4c-8.9-0.1-17.8-0.1-26.6-0.2c-37-0.1-74.1-0.1-111.1-0.2c-0.7,0-1.4,0-2.2,0
		c-0.5,0-0.9-0.2-1.6-0.4c0-2,0-3.9,0-6c-4.1,0.2-7.9,0.4-11.9,0.5c0-1.1,0-1.8,0-2.6c0-4.7,0-9.4,0-14.2c0-1.4-0.1-2.7,1.2-3.4
		c-0.5-1.1-1-1.9-1.2-2.8c-0.2-0.9,0-1.9,0-3c-6.9-0.2-13.4-0.4-20.4-0.5c0.8,2.6-0.1,4.6-1.5,6c0.2,1.6,0.6,2.8,0.6,4
		c0.1,3.9,0.2,7.8,0.2,11.7c0,1.6,0,3.2,0,5c-4.1,0-7.9,0-11.9,0c0,1.8,0,3.3,0,4.9c-0.8,0.1-1.4,0.2-2,0.2
		c-3.8,0.1-7.5,0.1-11.3,0.2c-11.6,0.1-23.2,0.1-34.8,0.2c-1.3,0-2.7,0.3-3.9,0.8c-12.5,5.4-24.9,10.8-37.4,16.3
		c-1.6,0.7-2.7,0.5-4-0.7c-4.2-3.8-8.5-7.6-12.8-11.3c-1.7-1.4-2.9-2.9-2.5-5.3c0.1-0.4-0.1-0.9-0.2-1.5c-1.2-0.1-2.4-0.2-3.7-0.4
		c-0.1,1.3-0.2,2.4-0.4,3.6c-2-0.3-3.8-0.6-5.6-0.9c-0.6-2.2-1.1-4.3-1.6-6.4c-1.8,0-3.5,0-5.5,0c0,2.4,0,4.7,0,6.8
		c-0.5,0.3-0.8,0.5-1.1,0.6c-3.4,1.8-2.7,1.1-2.7,4.5c0,48.2,0,96.3,0,144.5C60.3,322.3,60.3,323.3,60.3,324.2z M405.8,146.8
		c0.4,4.2,0.7,7.8,1.1,11.6c0.8,0,1.5,0,2.3,0c0-2.8,0-5.4,0-8c0-0.4-0.3-0.9-0.6-1.2C407.9,148.4,407.1,147.8,405.8,146.8z"/>
	<path d="M2103.6,333.1c-0.8-0.1-1.5-0.4-2.3-0.4c-8.3-0.1-16.6-0.1-25-0.2c-12.9-0.1-25.7-0.3-38.6-0.5
		c-12.7-0.2-25.4-0.3-38.1-0.5c-12.9-0.2-25.7-0.3-38.6-0.5c-12.7-0.2-25.4-0.3-38.1-0.5c-12.9-0.2-25.7-0.3-38.6-0.5
		c-12.7-0.2-25.4-0.3-38.1-0.5c-12.9-0.2-25.7-0.3-38.6-0.5c-12.6-0.2-25.3-0.3-37.9-0.5c-5.7-0.1-11.3-0.2-17.2-0.4
		c0-4.3,0-8.5,0-12.9c3.3,0,6.4,0,9.8,0c0.1-1.4,0.1-2.6,0.1-3.8c0.3-11.7,0.6-23.3,0.8-35c0.2-9.8,0.4-19.5,0.6-29.3
		c0.1-4.4,0.3-8.8,0.4-13.2c0-1,0.3-2.1-1.1-2.7c-0.6-0.3-0.8-1.8-2.2-1.6c-0.1-1.6-0.1-3.1-0.3-4.6c-0.1-1.1,0.5-1.6,1.3-2
		c3.8-2.2,7.6-4.5,11.3-6.7c0.5-0.3,1.3-0.5,1.6-1c0.3-0.6,0.6-1.8,0.3-2.1c-2.1-2-0.6-4.3-0.6-6.4c0-0.5,1.1-1.1,1.8-1.5
		c1.3-0.8,2.6-1.6,3.3-3c0.5-1.1,0.8-2.2,1.1-3.4c0.4-1.2,0.5-2.6,1.1-3.6c2-3.3,4.4-6.4,7.9-8.5c3.4-2.1,6.6-4.6,9.9-6.8
		c1.8-1.2,3.6-2.3,5.5-3.5c2.2-1.4,3.4-3.2,3.8-5.8c0.3-1.9,0.9-3.7,1.2-5.6c0.2-1.1,0.4-2.2,0.4-3.3c0-3.8,0-7.5,0-11.3
		c0-0.8,0-1.6,0-2.5c1.7,0,3.2,0,4.9,0c0.1,0.7,0.2,1.4,0.2,2.1c0,4.1,0,8.2,0,12.2c0,1.2,0.2,2.2,0.9,3.1c1.7,2.4,2.5,5.2,3,8
		c0.1,0.6,0.3,1.3,0.8,1.6c3.5,2.9,7,5.7,10.5,8.7c3,2.6,6,5.3,9.2,8.1c0.8-0.6,1.9-1.3,2.9-2.1c3-2.6,6.2-5,9.6-7.2
		c4.4-3,8.6-6.3,12.9-9.5c2.1-1.6,4.2-3.2,6.3-4.8c0.4-0.3,1-0.4,1.5-0.5c0.8-0.1,1.6-0.1,2.5-0.2c0.2-0.7,0.3-1.3,0.5-2.1
		c0.3,0,0.6-0.1,0.9-0.2c2.4,0,4.8-0.1,7.2-0.1c1,0,2.1-0.4,3,0.8c0.3,0.4,1.9-0.2,3.1-0.3c0-1.8,0-3.5,0-5.2
		c1.1-0.2,1.9-0.3,2.9-0.4c0.1-0.6,0.2-1.2,0.3-2c2.8,0,5.5,0,8.4,0c0.1,0.4,0.2,0.8,0.2,1.1c0.1,0.3,0.1,0.6,0.1,1.1
		c0.6,0.2,1.2,0.3,1.8,0.5c0.1,0.8,0.2,1.6,0.3,2.6c7.6,0,15.2-0.3,22.6-0.9c0.1-0.3,0.3-0.5,0.2-0.6c-0.6-2.1,0.3-3.6,1.9-5
		c1.3-1.1,2.3-2.4,3.6-3.8c2.3,2,4.5,3.8,6.5,5.7c0.5,0.5,0.6,1.6,1,2.6c9.3-0.5,18.7-1.5,28.4-2.7c0-2.3,0-4.5,0-6.9
		c3.3,0,6.4,0,9.6,0c0.1,0.8,0.2,1.6,0.4,2.6c0.6,0.1,1.2,0.3,1.9,0.5c0.1,0.5,0.3,1.1,0.5,2c6.4-0.2,12.9-0.4,19.1-0.6
		c0.2-0.3,0.4-0.5,0.4-0.6c-0.3-2.3,0.7-4,2.2-5.5c1-0.9,1.8-2,2.8-3.2c1.3,0.9,2.5,1.8,4,2.9c0-1.9,0-3.4,0-5.1c2.3,0,4.4,0,6.8,0
		c0-2.5,0-4.7,0-7.1c4.4,0,8.6,0,13.1,0c0,1.9,0,3.8,0,5.9c2.7,0,5.1,0,7.9,0c0,2.5,0,4.8,0,7.3c2.1,0,4,0,5.9,0
		c0.1,2,0.2,3.8,0.3,5.7c2.2,0,4.1,0,6.4,0c0.2,2.2,0.3,4.4,0.5,6.9c1.9-1.1,3.6-2,5.1-3.1c0.4-0.3,0.7-1,0.7-1.6
		c0.1-1.3,0.1-2.6,0-3.8c-0.3-4.5,0.6-8.9,1.6-13.3c0.6-2.5,1.6-5,3.7-6.9c0.8-0.7,1.5-1.6,2.3-2.4c2.7-2.6,2.7-2.5,0.5-5.5
		c-0.1-0.2-0.2-0.4-0.3-0.6c0.1-0.2,0.2-0.3,0.3-0.4c2.7-1.8,3.5-4.3,3.6-7.6c0.2-9.2,0.8-18.4,1.2-27.5c0-0.8,0-1.6,0-2.5
		c1.7,0,3.1,0,4.8,0c0.1,0.5,0.2,1.1,0.2,1.6c-0.3,6.6,0.9,13.1,1.5,19.6c0.4,3.7,0.9,7.5,1.2,11.2c0.1,1.3,0.5,2.2,1.7,2.9
		c0.9,0.6,1.8,1.3,2.7,2c-0.9,1.1-1.6,2-2.6,3.2c0.9,0.6,1.6,1.1,2.4,1.6c4.6,2.8,6.9,7.1,7.4,12.3c0.2,1.9,0.5,3.4,2.1,4.5
		c0.3,0.2,0.4,0.5,0.8,0.9c-0.4,0.7-0.9,1.4-1.3,2.2c-0.5,1.1-1,2.2-1.3,3.3c-0.7,2.9-0.3,3.3,2.6,4.2c6,1.8,10.9,5.1,14.7,10.1
		c0.1,0.2,0.3,0.4,0.4,0.6c2.8,3.3,4.3,7.2,5,11.5c0.3,1.8,0.8,3.6,1.6,5.3c0.6,1.2,1.6,2.3,2.7,3.3c1,1,2.3,1.7,3.7,2.7
		c-1,1.3-2,2.4-2.9,3.6c-1.7,2.1-1.4,3.8,0.9,5c3.3,1.9,6.7,3.6,10.1,5.5c1.8,1,3.5,2.2,5.2,3.3c0,1,0,1.9,0,2.9
		c-0.6,1.2-1.1,2.6-1.6,3.8c-0.7,1.8-1.6,4.1,0.3,6c0.6,0.6,0.3,1.3,0.1,2c-0.4,1-0.9,1.9-0.9,2.9c-0.1,5.3-0.3,10.7-0.2,16
		c0.3,12.7,0.9,25.3,1.3,38c0.3,10,0.5,20.1,0.7,30.1c0,0.6,0.2,1.2,0.3,1.8c0,6.9,0,13.8,0,20.6
		C2122.8,333.1,2113.2,333.1,2103.6,333.1z M1769.3,227.2c0.3,5-2,91.3-2.6,93.5c-3.1,0-6.2,0-9.5,0c0.1,1.1,0.1,1.8,0.2,2.7
		c0.7,0.1,1.3,0.2,1.8,0.2c10.3,0.1,20.6,0.3,30.9,0.4c12.2,0.2,24.3,0.3,36.5,0.5c13.2,0.2,26.4,0.3,39.6,0.5
		c12.4,0.2,24.8,0.3,37.2,0.5c13.3,0.2,26.5,0.3,39.8,0.5c12.3,0.2,24.6,0.3,36.9,0.5c13.2,0.2,26.4,0.3,39.6,0.5
		c12.4,0.2,24.8,0.3,37.2,0.5c14.6,0.2,29.3,0.3,43.9,0.5c7.8,0.1,15.5,0.2,23.3,0.3c1.1,0,2.2-0.1,3.5-0.1c0-3.8,0.1-7.4,0-11
		c-0.4-11.7-0.9-23.5-1.2-35.2c-0.4-11.8-0.6-23.7-1.1-35.5c-0.3-7-0.2-13.9,0.1-20.8c0.1-1.3,0.4-2.6,0.1-4
		c-0.6-3.5-0.4-6.9,1.7-10.1c-0.6-0.4-1.2-0.8-1.8-1.2c-2.9-1.6-5.7-3.1-8.6-4.7c-1.6-0.9-3.2-1.8-4.8-2.7c-0.6-0.3-1.3-1-1.3-1.5
		c0-3-1.4-6.2,1-8.7c-1.2-1.8-2.6-3.4-3.3-5.2c-1-2.6-1.7-5.3-2.3-8c-0.8-4.4-3.4-7.8-6.4-10.8c-3.3-3.3-7.2-5.4-11.9-6.3
		c-1.7-0.3-3.2-1.3-3.7-3c-0.7-2-1-4.2-0.5-6.4c0.6-2.3,1.1-4.4-0.1-6.7c-0.3-0.6-0.1-1.4-0.1-2.1c-0.4-4-1.8-7.7-5.7-9.4
		c-3.2-1.4-4-3.8-4.4-6.8c0-0.2,0.1-0.5,0-0.7c-0.2-0.4-0.5-0.9-0.8-1.3c-0.5,0.3-1.2,0.6-1.4,1c-0.3,0.5-0.2,1.3-0.1,1.9
		c0.5,3-0.6,5.3-3.1,7.1c-2.3,1.7-4.4,3.8-5,6.8c-0.7,3.3-1.2,6.6-1.5,9.9c-0.2,3.5-0.1,7-0.1,10.5c-5.3,3.1-10.4,6.2-15.7,9.2
		c-0.2-3.6-0.4-6.8-0.6-10c-0.2,0-0.4-0.1-0.5-0.1c-1.8,2.8-3.5,5.5-5.3,8.3c-0.2-0.1-0.3-0.1-0.5-0.2c-0.1-4.7-0.3-9.5-0.4-14.3
		c-2.1,0-4,0-6.1,0c0-2.4,0-4.7,0-7.2c-2.5-0.1-2.9,2-4.1,3.1c-1.2,1.2-2.2,2.6-3.3,3.9c-0.2-0.1-0.3-0.2-0.5-0.2
		c0-4.2,0-8.4,0-12.7c-1.1,0-1.9,0-3,0c0,2.4,0,4.6,0,7.1c-2.4,0-4.5,0-6.9,0c0,4.5,0,8.7,0,13.2c-3.3-2.8-4.8-6.7-8.8-9.1
		c0,2.7,0,4.9,0,7.2c-0.7,0.1-1.1,0.2-1.4,0.2c-6.5,0.2-12.9,0.6-19.4,0.6c-3,0-5.2,0.6-6.5,3.5c-0.5,1.2-1.4,2.4-2.3,3.4
		c-0.2-0.1-0.3-0.1-0.5-0.2c0-2.9,0-5.8,0-8.7c-1.2-0.3-1.8-0.1-1.8,1c0,0.8,0,1.7,0,2.6c-13.1,1.2-25.8,2.9-38.9,3.4
		c0-1.5,0-2.8,0-4.1c0-1.3-0.5-2.1-1.9-2.3c-1.1,2.2,0.4,4.5-0.3,6.7c-11,0.9-22.1,1.2-33.1,1.3c-0.2-1.2-0.3-2-0.4-2.9
		c-1.1-0.1-2.2-0.2-3.3-0.3c-0.1,1.5-0.2,2.8-0.4,4.2c-4.5,1.2-8.8,2.3-13.2,3.5c-0.1-1-0.3-1.7-0.4-2.5c0-0.1-0.2-0.1-0.5-0.2
		c-0.2,0.6-0.4,1.3-0.6,2.2c-1.7,0-3.4,0-5.1,0c-0.6,0-1.3,0.2-1.8,0.5c-1.8,1.2-3.5,2.5-5.2,3.8c-4.3,3.2-8.4,6.6-12.9,9.6
		c-3.5,2.3-6.7,4.9-10,7.5c-2.2,1.8-4.7,3.2-7.1,4.9c-1-1.2-1.7-2.1-2.5-3c-2.5-3.1-5.4-5.8-8.6-8.3c-3.8-2.9-7.5-6-11.1-9.1
		c-1.3-1.1-2.3-2.4-2-4.3c0.1-0.5-0.2-1.1-0.4-1.8c-0.7,1.5-1.2,2.8-1.9,4.1c-1.3,2.3-3.4,3.7-5.6,5.1c-1.6,1-3.3,2-4.9,3.1
		c-3.5,2.4-7.2,4.5-10.4,7.2c-2.6,2.2-5.5,4.6-5.4,8.6c0,0.4-0.2,0.8-0.4,1.1c-0.9,2.9-2.5,5.3-4.9,7.2c0,3,0,6,0,9
		c-0.7,0.4-1.3,0.8-1.9,1.2c-3.4,2.1-6.9,4.1-10.3,6.2c-0.3,0.2-0.5,0.5-0.8,0.9C1768.2,226.7,1768.8,227,1769.3,227.2z"/>
	<path d="M1696.5,51.4c0,19.2,0,38.4,0,57.8c0.9,0.1,1.8,0.2,2.6,0.3c3.2,0.3,4.3,1.1,4.9,4.2c0.5,2.6,2.1,4,4.3,5.1
		c10.3,5.5,20.8,10.7,31.6,15.1c11.6,4.7,23.3,9.4,34.9,14c3.7,1.5,3.7,1.5,3.8,5.6c0,0.3,0,0.6,0,1c0.5,3.1-1,5.1-3.5,6.7
		c-5.4,3.4-10.6,7.2-16,10.6c-13.3,8.6-25.9,18.2-38.7,27.5c-2.3,1.7-3.4,4.2-4,6.9c-0.5,2.3-0.8,4.7-0.8,7.1c0,37.4,0,74.7,0,112.1
		c0,1,0,2.1,0,3.3c-14.6,0-28.9,0-43.5,0c-0.1-0.7-0.2-1.4-0.2-2.1c0-13.7,0-27.4,0-41c0-24.4,0.1-48.8,0.2-73.2
		c0-7.1-2.9-12.7-8.7-16.7c-9.3-6.5-18.7-12.9-28.1-19.3c-7.7-5.2-15.4-10.3-23.2-15.4c-2.3-1.5-3.6-3.2-3.3-6.1
		c0.2-1.8,0-3.7,0-5.7c0.6-0.3,1.2-0.6,1.9-0.8c8.6-3.3,17.1-6.7,25.7-9.9c9.2-3.4,18.1-7.7,27-11.9c5.3-2.5,10.4-5.2,15.7-7.8
		c2.3-1.1,3.9-2.6,4.3-5.3c0.3-2,1.6-3.2,3.6-3.6c1.2-0.3,2.5-0.4,4-0.7c0-1,0-1.9,0-2.9c0-17.4,0-34.7,0-52.1
		c0-0.9,0.1-1.9,0.2-2.8C1693,51.4,1694.8,51.4,1696.5,51.4z M1614.1,152.4c-0.8,2.6,0.1,4,2.1,5.2c10.5,6.9,20.9,13.8,31.3,20.9
		c6.4,4.3,12.8,8.8,19.1,13.3c2.7,2,5.1,4.4,6.8,7.3c2.5,4.1,3.4,8.5,3.4,13.3c-0.1,36.1-0.1,72.1-0.1,108.2c0,0.9,0,1.9,0,2.9
		c11.3,0,22.4,0,33.6,0c0-1.1,0-2.1,0-3c0-36,0-72,0-108c0-3.4,0.4-6.7,1.7-9.9c1.1-2.7,2.3-5.3,4.7-7.1
		c12.4-8.9,24.5-18.3,37.3-26.6c5.8-3.8,11.6-7.7,17.4-11.6c2.3-1.6,2.4-1.7,1.7-4.6c-6.9-2.7-13.9-5.6-20.9-8.3
		c-16-6.2-31.7-13.3-46.8-21.4c-3-1.6-5.3-3.8-6.1-7.2c-0.2-0.8-0.6-1.2-1.5-1.3c-3.2-0.4-6.4-0.5-9.5,0.3c-0.1,0.3-0.3,0.5-0.4,0.7
		c-0.8,3.8-3.3,6.1-6.6,7.7c-18,9.1-36.2,17.7-55.2,24.5C1622.2,149.2,1618.2,150.8,1614.1,152.4z"/>
	<path class="st0" d="M2132.4,312.5c-0.1-0.6-0.3-1.2-0.3-1.8c-0.2-10-0.4-20.1-0.7-30.1c-0.4-12.7-0.9-25.3-1.3-38
		c-0.1-5.3,0.1-10.7,0.2-16c0-1,0.5-2,0.9-2.9c0.3-0.7,0.6-1.4-0.1-2c-1.9-1.9-1-4.2-0.3-6c0.5-1.2,1-2.6,1.6-3.8
		C2132.4,245.3,2132.4,278.9,2132.4,312.5z"/>
	<path d="M774.1,327.3c0-3.8,0-7.5,0-11.1c0-0.6,0.5-1.2,0.8-1.7c1.5-2.5,2.9-5,4.5-7.3c0.9-1.3,1.1-2.6,1-4.1
		c-0.4-6.1-0.7-12.1-1.1-18.2c0-0.2,0.1-0.5,0.1-1c2.2-0.5,4.5-1,6.9-1.5c11.2-2.4,22.4-4.7,33.5-7.1c1.2-0.3,2.1-0.1,2.9,0.9
		c4.3,4.8,8.6,9.5,12.9,14.2c0.6,0.6,1,1.4,1.5,2.2c0.9,0,1.8,0,3.1,0c0.1-2,0.2-4,0.3-6.1c6.2-0.8,12.3-1.6,18.6-2.4
		c0.1-1.8,0.2-3.6,0.3-5.5c4.1-0.7,8.1-1.4,12.3-2.1c0.1-0.6,0.2-1.2,0.2-1.9c0-36.9,0-73.8-0.1-110.6c0-15-0.1-29.9-0.1-44.9
		c0-1.8-0.4-3.4-1.5-4.9c-1.5-2-2.7-4.1-4.2-6.4c25.4-9.7,50.7-19.3,76.1-28.9c0.7,0.5,1.5,1.1,2.2,1.6c20.8,16,41.5,32.1,62.4,48
		c2.3,1.8,2.7,3.7,2.4,6.1c-0.1,0.5-0.2,0.9-0.3,1.4c-0.8,3-0.8,3-3.6,4.5c0.9,38.3,1.8,76.7,2.8,115.3c0.8,0.1,1.5,0.2,2.1,0.2
		c0.6,0,1.3,0,1.8,0c0.6-1.9,0.2-67.2-0.4-73.3c-1.3-0.5-2.6-0.9-4-1.4c0-2,0-4,0-6.2c2.4-1,4.9-2,7.9-3.2c-1.5-0.6-2.5-0.9-3.6-1.3
		c0-2.2,0-4.4,0-6.9c6-2.7,12.1-5.4,18.3-8.2c0-1,0-2,0-2.9c0-2.1,0-2.1,2.1-2.9c8.3-3.3,16.5-6.5,24.8-9.7
		c10.6-4.2,21.1-8.3,31.7-12.5c1.6-0.7,2.9-0.6,4.4,0.3c5.4,3.4,11,6.6,16.5,9.8c1.3,0.8,2,1.6,1.9,3.2c-0.2,2.6,0,5.3-0.1,7.9
		c0,1,0.3,1.6,1.2,2.1c1.7,0.9,3.3,1.8,4.9,2.7c0.3-0.1,0.4-0.1,0.4-0.2c0.1,0,0.1-0.1,0.1-0.2c0-10.1,0-20.1,0-30.4
		c2.3,0,4.4,0,6.7,0c0,11.7,0,23.3,0,35c3.1,1.7,6.1,3.2,9.3,4.9c0.4,3.6,0.7,7.4,1.1,11.2c-1.5,0.9-2.9,1.7-4.6,2.6
		c1.1,28.5,2.2,57,3.3,85.8c8,1.5,15.8,2.9,23.9,4.4c0-3.5,0-6.7,0-10c0.8-0.1,1.4-0.2,2-0.2c6.2,0,12.5,0,18.7,0
		c0.8,0,1.6,0.1,2.3,0.4c5.4,1.8,10.8,3.6,16.2,5.4c0.3,0.1,0.6,0.2,1,0.4c0,21,0,41.9,0,63.1c-0.9,0-1.9,0.1-2.8,0.1
		c-23.8,0-47.7,0-71.5,0c-24.7,0.1-49.4,0.2-74.1,0.3c-7.8,0-15.5,0.1-23.3,0.2c-15.8,0.1-31.5,0.2-47.3,0.2c-7.8,0-15.5,0-23.3,0.1
		c-8,0-16,0.1-24,0.2c-11.4,0.1-22.7,0.2-34.1,0.2c-12.1,0.1-24.2,0-36.2,0.1c-7.9,0-15.8,0.1-23.8,0.2c-15.5,0.1-31,0.2-46.5,0.2
		c-4.8,0-9.6,0.1-14.4,0.1C775.9,327.5,775.1,327.4,774.1,327.3z M1162.8,261.4c0,3.9,0,7.4,0,11.3c-11.4-2.1-22.5-4.2-33.7-6.3
		c-0.1-1.2-0.2-2.2-0.3-3.3c-0.2-5.9-0.4-11.8-0.6-17.7c-0.4-11.5-0.9-23-1.4-34.5c-0.3-6.6-0.5-13.3-0.8-19.9
		c-0.2-5.2-0.4-10.4-0.7-15.6c-0.1-1.5,0.3-2.6,1.8-3.2c0.9-0.3,1.7-0.9,2.4-1.4c0-0.7,0-1.3,0-1.8c0.1-2.3-0.8-3.7-3-4.8
		c-6.6-3.4-13-7.2-19.5-10.9c-0.3-0.2-0.6-0.5-1-0.8c0-3.8,0-7.5,0-11.3c-4.7-2.8-9.2-5.4-13.7-8.2c-1.4-0.9-2.6-1-4.2-0.4
		c-14.5,5.8-29,11.4-43.5,17.1c-3.2,1.3-6.4,2.5-9.7,3.8c0,1.7,0,3.2,0,4.9c-6,2.7-11.8,5.3-17.6,7.8c0,0.1,0,0.3,0,0.4
		c4.4,1.3,8.8,2.6,13.2,3.9c0,0.1,0,0.3-0.1,0.4c-5.5,2.1-10.9,4.3-16.7,6.5c1.1,0.5,1.8,0.8,2.6,1.2c0.3,27.3,0.6,54.5,0.8,81.9
		c-5,0-9.6,0-14.5,0c-1-41.5-2-82.9-3-124.2c1.1-0.4,2.1-0.7,2.9-1.1c1.3-0.6,1.5-2.2,0.5-3.1c-0.4-0.4-0.9-0.7-1.3-1
		c-16.6-12.8-33.2-25.6-49.8-38.4c-3.7-2.8-7.3-5.7-11-8.5c-22.5,8.6-44.9,17.1-67.5,25.7c0.5,0.8,0.7,1.4,1.2,2
		c1.5,1.8,1.8,3.8,1.8,6c0,30.6,0,61.1,0,91.7c0,5,0.1,9.9,0.1,14.9c0,18,0,36,0,54c0,0.7-0.1,1.4-0.2,2c-4.3,0.7-8.3,1.4-12.5,2.1
		c0,2,0,3.8,0,5.6c-6.3,0.8-12.4,1.6-18.8,2.5c0,2.3,0,4.4,0,6.6c-4.7,0-9.1,0-13.8,0c0-1,0.1-1.9,0-2.7c-0.1-0.7-0.2-1.5-0.6-2
		c-3.7-4.1-7.4-8.2-11.2-12.3c-11.7,2.5-23.4,5-35.1,7.4c0,0.9,0,1.4,0,2c0.3,4.9,0.5,9.9,0.8,14.8c0.1,1.4-0.2,2.6-1,3.8
		c-1.4,2.1-2.6,4.4-4.1,6.5c-1.7,2.3-1.4,4.7-1.1,7.4c0.9,0,1.7,0,2.5,0c2.9,0,5.8-0.1,8.6-0.2c7.8-0.1,15.5-0.1,23.3-0.2
		c8.2,0,16.5,0,24.7-0.1c15.4-0.1,30.7-0.2,46.1-0.2c7.9,0,15.8-0.1,23.7-0.2c7.8,0,15.7,0,23.5-0.1c15.7-0.1,31.3-0.2,47-0.2
		c7.8,0,15.7-0.1,23.5-0.2c10.2,0,20.5,0,30.7-0.1c13.3-0.1,26.5-0.2,39.8-0.2c8,0,16-0.1,24-0.2c19.1,0,38.2-0.1,57.3-0.1
		c12,0,24,0,36,0c0.9,0,1.7,0,2.7,0c0-18.4,0-36.4,0-54.6c-4.6-1.5-9.1-3-13.7-4.5c-0.2-0.1-0.5-0.1-0.7-0.1
		C1173.4,261.4,1168.3,261.4,1162.8,261.4z"/>
	<path d="M1440.8,190.1c-0.3-2-0.7-4-1.1-6.1c-0.7-0.1-1.3-0.1-2.2-0.2c-3.8-10.5-7.7-21.1-11.6-31.7c-0.2,0-0.3,0-0.5,0
		c-2.2,8.6-4.4,17.1-6.6,25.8c-2.1,0.1-4.1,0.2-6.1,0.3c-7.6,0.1-15.2-0.2-22.8,0.2c-9,0.5-18,0.6-27.1,0.6
		c-7.9,0-15.8-0.1-23.8-0.2c-0.6,0-1.3-0.1-2-0.1c-2.6-7.4-5.2-14.8-7.9-22.7c-1.3,3.6-2.4,6.7-3.5,9.8c-2,5.6-4.1,11.3-6,16.9
		c-0.5,1.6-1.2,2.8-3.3,2.5c-0.4,2.1-0.7,4.1-1.1,6.4c-2.3,0.1-4.7,0.3-7.1,0.3c-13,0.1-25.9,0.2-38.9,0.2c-1.6,0-2.7,0.5-3.8,1.6
		c-4.2,4.3-8.5,8.5-12.8,12.7c-0.5,0.5-1,0.9-1.9,1.7c-1.6-9.3-3.2-18.2-4.8-27.6c-0.4,0.8-0.7,1.2-0.9,1.6
		c-2.7,7.9-5.4,15.9-8.1,23.8c-0.7,2-1.1,4.2-3,5.2c0.3,3.4,1.1,6.5,0.8,9.7c-0.5,5.6-0.8,11.3-1.2,17c-0.8,13.2-1.4,26.3-2.5,39.5
		c-0.2,3,0.4,5.1,2.7,6.8c1.4,1,1.8,2.4,1.7,4.2c-0.8,11.4-1.6,22.8-2.4,34.2c0,0.2-0.1,0.5-0.2,1c-1.5-0.1-3-0.2-4.7-0.3
		c0-0.8,0-1.4,0-2c0.7-10.1,1.3-20.1,2-30.1c0.2-2.2-0.2-3.9-2-5.2c-2-1.5-2.6-3.5-2.4-6.2c0.9-11.4,1.4-22.8,2.1-34.2
		c0.1-1.9,0.3-3.9-1.8-5.4c2.8-1.3,2.5-3.8,2.7-6.1c0.3-3.9,0.7-7.8,0.8-11.7c0.1-2.4,0-4.8-0.4-7.1c-0.2-1-1.1-1.9-1.8-2.9
		c0.8-1.3,1.5-2.7,2.6-3.9c1.1-1.2,1.7-2.5,2.2-3.9c4.7-13.9,9.4-27.8,14.2-41.8c0.2-0.7,0.6-1.4,1.2-2.1c2.1,12.3,4.3,24.5,6.4,37
		c0.5-0.4,1-0.6,1.4-0.9c2.7-2.6,5.4-5.2,8-7.9c1-1,2-1.4,3.4-1.4c13.6,0,27.2-0.1,40.8-0.2c1,0,2-0.1,3.2-0.2
		c0.3-2.1,0.7-4.1,1-6.1c1.1-0.2,2.1-0.3,3.3-0.5c2.7-7.4,5.5-14.9,8-22.5c2.4-7.5,4.4-15.1,6.5-22.7c1.5,6.6,2.7,13.3,4.5,19.8
		c1.8,6.4,4.3,12.7,6.6,19.1c11.9,0,23.6,0,35.6,0c0.5-5.7,0.4-11.5,0.5-17.3c0.2-5.8,0.3-11.7,0.5-17.6c1.6,0,3.2,0,4.9,0
		c0,11.5,0,22.9,0,34.6c10.9,0.1,21.6-0.3,32.4-0.4c3.1-10.7,5.2-21.5,8.6-32.2c2.6,0.7,4.8,1.3,7.4,2c-2.1,2.4-1.2,4.5-0.4,6.7
		c2.7,7.3,5.4,14.7,8.1,22.1c0.3,0.7,0.6,1.5,1.3,2.2c0.6-3,1.1-6,1.7-8.9c1.8,6.7,2.5,13.5,3.8,20.5c0.9,0,1.7,0,2.4,0
		c12.6-0.2,25.3-0.4,37.9-0.6c5.1-0.1,5.1-0.2,8.7,3.5c2,2,3.9,3.9,6.2,6.2c0.8-3.8,1.5-7.2,2.1-10.6c0.3-1.3,0.2-2.9,0.9-3.9
		c1.6-2.2,1.5-4.7,1.9-7c0.8-4,1.1-8.2,1-12.3c-0.1-2,0-4,0-6.1c1.7-0.1,3.1-0.1,4.8-0.2c0.3,3.2,0.6,6.2,0.9,9.2
		c0.5,4.7,1.1,9.4,3,13.9c1.9,4.5,3.1,9.2,4.7,13.8c1.2,3.6,2.6,7.2,3.9,10.8c0.7,1.9,1.7,3.4,3.5,4.4c0.5,0.3,0.9,0.7,1.3,1
		c0,0.3,0,0.6-0.1,0.7c-1.9,2-2.3,4.6-2.7,7.2c-0.1,0.4,0,0.8,0,1.2c0.5,3.6,1,7.1,1.5,10.7c0,0.2,0.2,0.4,0.7,0.6
		c0-1.1,0.1-2.2,0-3.3c0-0.9,0.2-1.5,1-2c5.3-3.6,10.6-7.2,16-10.9c4.3,1.7,8.6,3.4,12.9,5c1,0.4,2.1,0.7,3.1,1.2
		c4.1,2.2,8.5,2.8,13,2.3c5.4-0.6,10.4,0.4,15,3.4c3.1,2.1,6.6,2.4,10.3,2.4c4,0.1,7.4-0.8,10.5-3.1c1.1-0.8,2.3-1.4,3.6-2.2
		c1,1.2,1.9,2.3,2.7,3.5c0.7,1.1,1.6,1.4,2.8,1.3c1.7-0.1,3.3,0,5.3,0c1.8,32.7,3.6,65.2,5.4,97.9c-1.7,0.1-3.2,0.2-5,0.3
		c-1.7-31.1-3.5-62-5.2-93.2c-3.3,0.8-5.8,0.1-7.1-3.1c-1.6,0.9-2.9,1.8-4.3,2.5c-1,0.5-2.1,0.9-3.1,1c-3.6,0.2-7.2,0.2-10.8,0.2
		c-1.1,0-2.2-0.3-3.2-0.8c-2.3-1-4.7-2.1-6.9-3.4c-2.5-1.5-5-1.9-7.8-1.7c-2.7,0.2-5.4,0.3-8.1,0.3c-1.1,0-2.2-0.2-3.3-0.6
		c-5.8-2.2-11.6-4.5-17.4-6.8c-1.2-0.5-2.2-0.4-3.3,0.3c-3.3,2.3-6.6,4.6-9.9,6.8c-1,0.7-1.4,1.5-1.2,2.6c0.1,0.3,0.1,0.6,0.1,1
		c0.3,1.9-0.4,3.1-2.2,3.9c-2.1,0.8-4,2-6,3.1c-0.4,0.2-0.9,0.3-1.5,0.5c-0.7-5-1.4-9.8-2-14.6c-0.1-0.8-0.2-1.6-0.3-2.4
		c-0.6-3.8-0.5-5.9,0.6-10c-5.5-9.6-7.2-20.6-11.7-31.2c-1.1,4.7-1.6,9-2.3,13.2c-0.7,4.3-1.4,8.5-2.1,12.8
		c-0.7,4.3-1.4,8.6-2.5,12.9c-0.3-2.4-0.6-4.7-0.9-7.1c-0.2-1.4-0.5-2.9-0.4-4.3c0-1.8-0.8-3.1-2-4.4c-3.3-3.2-6.5-6.4-9.7-9.7
		c-1-1-1.9-1.4-3.3-1.4c-9.2,0.2-18.4,0.3-27.6,0.4C1453.1,190.1,1447.1,190.1,1440.8,190.1z"/>
	<path d="M597.3,325.4c0.8-20.1,1.7-40,2.5-60.3c2.4,0,4.7-0.1,6.9,0c0.5,0,0.9,0.5,1.3,0.9c0.9,0.8,1.8,1.6,2.5,2.5
		c1,1.2,2.2,1.5,3.8,0.9c0-6.2,0-12.4,0-18.8c2.3-0.2,4.4-0.4,6.8-0.6c0-5.3,0-10.6,0-16.2c2.2,0.2,4,0.4,6.2,0.7
		c0.3-2.1,0.6-4.2,0.9-6.3c0.5-4,1-8.1,1.5-12.1c0.1-0.5,0.1-1,0.3-1.4c1.7-4.7,3.5-9.4,5.2-14.2c0-0.1,0.2-0.2,0.6-0.5
		c1.5,5,3,9.9,4.5,14.8c3.5,0,7,0,10.8,0c0-1.9,0.1-3.6,0-5.2c-0.1-1.2,0.2-2.2,1.4-2.8c1.1-0.5,1.4-1.4,1.4-2.5
		c-0.1-1.8,0.1-3.7,0-5.5c-0.3-5.7,0.5-11.3,1.5-16.9c1.3-7.2,2.5-14.5,3.8-21.7c0.1-0.6,0.3-1.2,0.6-2.4c1.1,2.5,2.1,4.6,3,6.6
		c1-2.1,1.7-4.2,1.6-6.4c0-6,0-12,0-18c0-0.8,0-1.6,0-2.6c1.7,0.3,2.5,1.8,4.2,2.5c3.2-18,6.1-35.9,9.7-53.8
		c3.2,17.8,6.4,35.7,9.7,53.6c0.8,0.2,1.5,0.4,2.2,0.5c0.7,10.4,3.8,20.3,5.7,30.4c1.2,6.4,2.8,12.6,3.9,19
		c0.7,3.8,0.8,7.8,1.1,11.7c0.3,3.8,0.6,7.6,0.9,11.5c0,0.3,0.1,0.6,0.2,1.1c4.3,0,8.6,0,13.1,0c0-5.3,0-10.6,0-15.9
		c0.2,0,0.3-0.1,0.5-0.1c0.4,0.7,0.9,1.4,1.2,2.2c2,3.9,4.1,7.8,6,11.8c0.8,1.8,1.2,4,1.6,6c0.9,5,1.7,10.1,2.6,15.1
		c0.1,0.5,0.3,0.9,0.5,1.6c2,0,3.9,0,6.2,0c0.4,6.4,0,12.6,0.3,18.9c1.4,0.1,2.6,0.1,4.1,0.2c0,4.8,0,9.6,0,14.4
		c1.3,0.3,2.4,0.5,3.6,0.8c1.1-2,2.3-4.1,3.6-6.4c1.5,1.1,2.8,2,4.1,3c1.9,1.4,3.8,2.9,5.8,4.3c0.9,0.6,1.3,1.4,1.2,2.4
		c-0.1,1,0.1,2.1,0,3.1c-0.1,1.3,0.4,2.1,1.5,2.7c2.5,1.3,4.9,2.7,7.3,4.1c0,14.5,0,28.9,0,43.2C763.5,325.8,600.7,326,597.3,325.4z
		 M672.4,149.1c-1.1-0.6-1.8-1-2.8-1.5c0,3.7,0,7.1,0,10.4c0,1.2,0,2.4-0.3,3.6c-1.3,5.8-2.7,11.5-4.1,17.3
		c-0.1,0.5-0.3,0.9-0.6,1.7c-0.9-1.9-1.6-3.5-2.3-5c-0.7,1.8-1,3.4-1.3,5c-1,5.5-2.1,11-1.8,16.6c0.2,3.3,0,6.6,0,9.8
		c0,0.9,0,1.8-1,2.2c-1.7,0.7-2,2-1.9,3.7c0.1,2.2,0,4.4,0,6.7c-6.7,0.2-13.1,0.3-19.4,0.5c-0.5-1.5-1-2.8-1.4-4.1
		c-0.2,0-0.3,0-0.5,0c-1,8-2,15.9-3.1,24c-1.9-0.2-3.5-0.4-5.5-0.5c0,5.1,0,10.1,0,15.2c-2.5,0.2-4.7,0.4-7.1,0.7
		c0,6.5,0,12.8,0,19.4c-2.5,0-4.8-0.1-7,0c-1.9,0.1-3.4-0.4-4.6-1.9c-0.8-1-1.6-2.1-3.1-2.7c-0.7,16.9-1.4,33.6-2.1,50.3
		c52.7,0,105,0,157.5,0c0.1-0.7,0.2-1.4,0.2-2c0-10.6,0-21.1,0-31.7c0-1.4-0.4-2.2-1.7-2.8c-2.5-1.3-4.8-2.7-7.2-4.1
		c0-2,0-3.7,0-5.5c0-0.6-0.2-1.3-0.6-1.7c-1.1-1-2.4-1.8-3.8-2.9c-1.4,2.4-2.7,4.7-4.1,7c-1.2-1.1-2.4-1.8-3.3-2.8
		c-1.1-1.4-2.8-0.4-4-1.1c-0.1-1-0.2-1.9-0.3-2.8c-0.8-0.2-1.5-0.4-2.4-0.6c0-3.7,0-7.3,0-11c-1.5-0.1-2.8-0.2-4.2-0.3
		c0-3.2,0-6.3,0-9.4c0-3.1,0.1-6.2-0.1-9.4c-2.1,0-3.8,0-5.6,0c-1.2-6.9-2.4-13.6-3.5-20.5c-2.7,0-5.2,0-7.7,0c-2.4,0-4.8,0-7.2,0
		c-2.4,0-4.9,0.1-7.4-0.1c-0.5-7-1.1-13.7-1.5-20.4c-0.3-5.5-1.1-11-2.6-16.3c-2.2-7.8-4.6-15.6-6.9-23.5c-0.4-1.4-0.6-2.8-0.6-4.2
		c-0.1-3.1,0-6.2,0-9.4c-1.4,0-1.7-0.7-1.9-1.8c-1.5-8.7-3.1-17.5-4.7-26.2c-0.1-0.6-0.3-1.2-0.5-1.8c-0.1,0-0.2,0-0.3,0
		C676.2,126.6,674.3,137.7,672.4,149.1z"/>
	<path class="st0" d="M60.3,324.2c0-1,0-2,0-3c0-48.2,0-96.3,0-144.5c0-3.4-0.6-2.7,2.7-4.5c0.3-0.1,0.6-0.3,1.1-0.6
		c0-2.1,0-4.4,0-6.8c2,0,3.7,0,5.5,0c0.5,2.1,1.1,4.2,1.6,6.4c1.8,0.3,3.6,0.6,5.6,0.9c0.1-1.2,0.2-2.3,0.4-3.6
		c1.3,0.1,2.4,0.2,3.7,0.4c0.1,0.6,0.2,1.1,0.2,1.5c-0.5,2.4,0.8,3.8,2.5,5.3c4.3,3.7,8.6,7.4,12.8,11.3c1.3,1.2,2.4,1.4,4,0.7
		c12.4-5.5,24.9-10.9,37.4-16.3c1.2-0.5,2.6-0.8,3.9-0.8c11.6-0.1,23.2-0.1,34.8-0.2c3.8,0,7.5-0.1,11.3-0.2c0.6,0,1.2-0.1,2-0.2
		c0-1.6,0-3.1,0-4.9c4,0,7.8,0,11.9,0c0-1.9,0-3.5,0-5c-0.1-3.9-0.1-7.8-0.2-11.7c0-1.2-0.4-2.4-0.6-4c1.4-1.4,2.2-3.4,1.5-6
		c6.9,0.2,13.5,0.4,20.4,0.5c0,1.2-0.1,2.1,0,3c0.2,0.9,0.7,1.7,1.2,2.8c-1.3,0.7-1.3,2-1.2,3.4c0,4.7,0,9.4,0,14.2
		c0,0.8,0,1.6,0,2.6c4-0.2,7.8-0.4,11.9-0.5c0,2,0,4,0,6c0.7,0.2,1.2,0.3,1.6,0.4c0.7,0.1,1.4,0,2.2,0c37,0.1,74.1,0.1,111.1,0.2
		c8.9,0,17.8,0.1,26.6,0.2c7.2,0.1,14.4,0.1,21.6,0.4c2.1,0.1,3.6-0.6,4.8-2c0.5-0.5,0.8-1.3,0.9-2c0.2-1.2,0-2.4,0-3.7
		c3.8,0,7.4,0,11.1,0c0-1.4,0-2.7,0-3.9c0-3.3,0-6.6-0.1-9.8c0-1.6-0.1-3.2-2-4.2c1.6-2.1,2.7-4.4,2.3-7.2c6.7,0,13,0,19.5,0
		c0.1,0.4,0.2,0.8,0.2,1.2c-0.1,1.2,0.2,2.1,1.3,2.9c1,0.7,1.7,1.5,0.5,2.7c-0.2,0.2-0.2,0.8-0.2,1.1c0,5.4,0,10.7,0,16.4
		c4,0.2,7.9,0,11.9,0.2c0.3,2.7,0.5,5.3,0.8,8c0.7,0.1,1.3,0.2,1.9,0.2c12.6,0,25.1-0.1,37.7-0.1c1.2,0,2.4,0.3,3.5,0.8
		c11.3,4.4,22.6,9,33.9,13.4c7,2.7,14.2,5,21.3,7.4c0.5,0.2,0.9,0.3,1.4,0.3c4.3,0,8.6,0,13.1,0c0.1-5.5,0.3-11,0.4-16.7
		c-0.8-0.1-1.4-0.1-2.4-0.1c0.5-3.1,0.9-6.1,1.4-9.1c2.3,8.9,3.1,17.9,3.9,27c1.1,0.1,2,0.2,3,0.3c0.4,2,0.7,3.9,0.6,5.9
		c-0.2,4.1,0.1,8.1,0.2,12.2c0.2,8.9,0.3,17.7,0.5,26.6c0.3,11.9,0.6,23.8,0.8,35.7c0.2,10.1,0.4,20.1,0.6,30.2
		c0.1,5,0.2,9.9,0.4,14.9c0,1.5,0,3,0,4.5C569.1,324.7,63.1,324.8,60.3,324.2z"/>
	<path class="st0" d="M405.8,146.8c1.2,1,2.1,1.6,2.8,2.3c0.3,0.3,0.6,0.8,0.6,1.2c0.1,2.6,0,5.2,0,8c-0.8,0-1.5,0-2.3,0
		C406.6,154.6,406.2,151,405.8,146.8z"/>
	<path class="st0" d="M1769.3,227.2c-0.5-0.2-1.1-0.5-1.8-0.8c0.4-0.4,0.5-0.8,0.8-0.9c3.4-2.1,6.9-4.1,10.3-6.2
		c0.6-0.4,1.2-0.8,1.9-1.2c0-3,0-5.9,0-9c2.4-1.9,4-4.3,4.9-7.2c0.1-0.4,0.4-0.8,0.4-1.1c-0.1-4,2.8-6.4,5.4-8.6
		c3.2-2.7,6.9-4.9,10.4-7.2c1.6-1.1,3.2-2.1,4.9-3.1c2.2-1.3,4.3-2.8,5.6-5.1c0.7-1.2,1.2-2.6,1.9-4.1c0.2,0.7,0.5,1.3,0.4,1.8
		c-0.3,1.9,0.7,3.3,2,4.3c3.7,3.1,7.3,6.2,11.1,9.1c3.2,2.4,6.1,5.2,8.6,8.3c0.8,0.9,1.5,1.8,2.5,3c2.4-1.7,4.9-3.1,7.1-4.9
		c3.2-2.6,6.5-5.1,10-7.5c4.4-3,8.6-6.4,12.9-9.6c1.7-1.3,3.4-2.6,5.2-3.8c0.5-0.3,1.2-0.5,1.8-0.5c1.7-0.1,3.3,0,5.1,0
		c0.3-0.9,0.4-1.5,0.6-2.2c0.3,0.1,0.5,0.1,0.5,0.2c0.1,0.8,0.2,1.5,0.4,2.5c4.4-1.2,8.7-2.3,13.2-3.5c0.1-1.4,0.2-2.7,0.4-4.2
		c1.1,0.1,2.1,0.2,3.3,0.3c0.1,0.9,0.2,1.7,0.4,2.9c11-0.2,22.1-0.5,33.1-1.3c0.7-2.3-0.8-4.5,0.3-6.7c1.4,0.2,2,1,1.9,2.3
		c0,1.3,0,2.5,0,4.1c13.1-0.5,25.8-2.2,38.9-3.4c0-0.9,0-1.7,0-2.6c0-1.2,0.7-1.3,1.8-1c0,2.9,0,5.8,0,8.7c0.2,0.1,0.3,0.1,0.5,0.2
		c1-1,1.8-2.1,2.3-3.4c1.3-2.9,3.5-3.5,6.5-3.5c6.5,0,12.9-0.4,19.4-0.6c0.4,0,0.8-0.1,1.4-0.2c0-2.2,0-4.4,0-7.2
		c3.9,2.4,5.5,6.3,8.8,9.1c0-4.6,0-8.7,0-13.2c2.4,0,4.5,0,6.9,0c0-2.5,0-4.7,0-7.1c1.1,0,1.9,0,3,0c0,4.3,0,8.5,0,12.7
		c0.2,0.1,0.3,0.2,0.5,0.2c1.1-1.3,2.1-2.7,3.3-3.9c1.1-1.1,1.6-3.2,4.1-3.1c0,2.4,0,4.7,0,7.2c2.1,0,4,0,6.1,0
		c0.2,4.9,0.3,9.6,0.4,14.3c0.2,0.1,0.3,0.1,0.5,0.2c1.8-2.8,3.5-5.5,5.3-8.3c0.2,0,0.4,0.1,0.5,0.1c0.2,3.2,0.4,6.4,0.6,10
		c5.4-3,10.4-6.1,15.7-9.2c0-3.5-0.2-7,0.1-10.5c0.2-3.3,0.8-6.7,1.5-9.9c0.6-3,2.7-5.1,5-6.8c2.6-1.8,3.6-4.1,3.1-7.1
		c-0.1-0.6-0.2-1.4,0.1-1.9c0.2-0.5,0.9-0.7,1.4-1c0.3,0.4,0.6,0.8,0.8,1.3c0.1,0.2,0,0.5,0,0.7c0.4,2.9,1.2,5.4,4.4,6.8
		c3.9,1.7,5.3,5.3,5.7,9.4c0.1,0.7-0.2,1.6,0.1,2.1c1.2,2.3,0.6,4.4,0.1,6.7c-0.6,2.2-0.3,4.3,0.5,6.4c0.6,1.7,2.1,2.7,3.7,3
		c4.6,0.9,8.6,3,11.9,6.3c3,3,5.5,6.4,6.4,10.8c0.5,2.7,1.2,5.5,2.3,8c0.7,1.8,2.1,3.3,3.3,5.2c-2.4,2.5-1,5.7-1,8.7
		c0,0.5,0.7,1.2,1.3,1.5c1.6,1,3.2,1.9,4.8,2.7c2.9,1.6,5.7,3.1,8.6,4.7c0.6,0.3,1.2,0.8,1.8,1.2c-2.1,3.2-2.2,6.7-1.7,10.1
		c0.2,1.4-0.1,2.7-0.1,4c-0.3,6.9-0.4,13.9-0.1,20.8c0.5,11.8,0.7,23.6,1.1,35.5c0.4,11.7,0.9,23.5,1.2,35.2c0.1,3.6,0,7.2,0,11
		c-1.3,0.1-2.4,0.1-3.5,0.1c-7.8-0.1-15.5-0.2-23.3-0.3c-14.6-0.2-29.3-0.3-43.9-0.5c-12.4-0.1-24.8-0.3-37.2-0.5
		c-13.2-0.2-26.4-0.3-39.6-0.5c-12.3-0.2-24.6-0.3-36.9-0.5c-13.3-0.2-26.5-0.3-39.8-0.5c-12.4-0.2-24.8-0.3-37.2-0.5
		c-13.2-0.2-26.4-0.3-39.6-0.5c-12.2-0.2-24.3-0.3-36.5-0.5c-10.3-0.1-20.6-0.3-30.9-0.4c-0.5,0-1.1-0.1-1.8-0.2
		c-0.1-0.8-0.1-1.6-0.2-2.7c3.3,0,6.4,0,9.5,0C1767.3,318.4,1769.6,232.1,1769.3,227.2z"/>
	<path class="st0" d="M1614.1,152.4c4-1.5,8.1-3.2,12.2-4.7c19-6.8,37.2-15.4,55.2-24.5c3.3-1.7,5.8-4,6.6-7.7
		c0-0.2,0.2-0.4,0.4-0.7c3.1-0.8,6.3-0.7,9.5-0.3c0.8,0.1,1.3,0.5,1.5,1.3c0.8,3.5,3.1,5.6,6.1,7.2c15.2,8.2,30.8,15.2,46.8,21.4
		c7,2.7,14,5.5,20.9,8.3c0.7,2.9,0.6,3-1.7,4.6c-5.8,3.9-11.5,7.8-17.4,11.6c-12.8,8.3-24.9,17.7-37.3,26.6
		c-2.4,1.8-3.7,4.4-4.7,7.1c-1.2,3.2-1.7,6.5-1.7,9.9c0,36,0,72,0,108c0,0.9,0,1.9,0,3c-11.3,0-22.3,0-33.6,0c0-1.1,0-2,0-2.9
		c0-36.1,0-72.1,0.1-108.2c0-4.7-1-9.2-3.4-13.3c-1.8-2.9-4.1-5.4-6.8-7.3c-6.3-4.5-12.7-8.9-19.1-13.3c-10.4-7-20.8-14-31.3-20.9
		C1614.3,156.3,1613.3,155,1614.1,152.4z"/>
	<path class="st0" d="M1162.8,261.4c5.5,0,10.6,0,15.7,0c0.2,0,0.5,0.1,0.7,0.1c4.5,1.5,9.1,3,13.7,4.5c0,18.2,0,36.2,0,54.6
		c-1,0-1.8,0-2.7,0c-12,0-24,0-36,0c-19.1,0-38.2,0-57.3,0.1c-8,0-16,0.1-24,0.2c-13.3,0.1-26.5,0.2-39.8,0.2
		c-10.2,0-20.5,0-30.7,0.1c-7.8,0-15.7,0.1-23.5,0.2c-15.7,0.1-31.3,0.2-47,0.2c-7.8,0-15.7,0-23.5,0.1c-7.9,0-15.8,0.1-23.7,0.2
		c-15.4,0.1-30.7,0.2-46.1,0.2c-8.2,0-16.5,0-24.7,0.1c-7.8,0-15.5,0.1-23.3,0.2c-2.9,0-5.8,0.1-8.6,0.2c-0.8,0-1.6,0-2.5,0
		c-0.3-2.7-0.6-5.1,1.1-7.4c1.5-2.1,2.7-4.4,4.1-6.5c0.8-1.2,1.1-2.4,1-3.8c-0.3-4.9-0.6-9.9-0.8-14.8c0-0.5,0-1.1,0-2
		c11.7-2.5,23.4-5,35.1-7.4c3.8,4.1,7.5,8.2,11.2,12.3c0.4,0.5,0.5,1.3,0.6,2c0.1,0.8,0,1.7,0,2.7c4.7,0,9.1,0,13.8,0
		c0-2.2,0-4.3,0-6.6c6.3-0.8,12.4-1.6,18.8-2.5c0-1.8,0-3.6,0-5.6c4.2-0.7,8.2-1.4,12.5-2.1c0.1-0.6,0.2-1.3,0.2-2c0-18,0-36,0-54
		c0-5-0.1-9.9-0.1-14.9c0-30.6-0.1-61.1,0-91.7c0-2.3-0.3-4.2-1.8-6c-0.4-0.5-0.7-1.2-1.2-2c22.6-8.6,44.9-17.1,67.5-25.7
		c3.7,2.8,7.3,5.6,11,8.5c16.6,12.8,33.2,25.6,49.8,38.4c0.4,0.3,0.9,0.7,1.3,1c1,1,0.8,2.5-0.5,3.1c-0.9,0.4-1.8,0.7-2.9,1.1
		c1,41.3,2,82.7,3,124.2c4.9,0,9.5,0,14.5,0c-0.3-27.3-0.6-54.6-0.8-81.9c-0.8-0.4-1.5-0.7-2.6-1.2c5.8-2.3,11.2-4.4,16.7-6.5
		c0-0.1,0-0.3,0.1-0.4c-4.4-1.3-8.8-2.6-13.2-3.9c0-0.1,0-0.3,0-0.4c5.8-2.6,11.6-5.2,17.6-7.8c0-1.6,0-3.2,0-4.9
		c3.3-1.3,6.5-2.6,9.7-3.8c14.5-5.7,29-11.4,43.5-17.1c1.6-0.6,2.8-0.5,4.2,0.4c4.5,2.8,9.1,5.4,13.7,8.2c0,3.7,0,7.5,0,11.3
		c0.4,0.3,0.7,0.6,1,0.8c6.5,3.6,12.9,7.4,19.5,10.9c2.2,1.1,3.1,2.5,3,4.8c0,0.6,0,1.1,0,1.8c-0.8,0.4-1.6,1-2.4,1.4
		c-1.5,0.6-1.9,1.6-1.8,3.2c0.3,5.2,0.5,10.4,0.7,15.6c0.3,6.6,0.5,13.3,0.8,19.9c0.4,11.5,0.9,23,1.4,34.5
		c0.2,5.9,0.4,11.8,0.6,17.7c0,1,0.2,2.1,0.3,3.3c11.2,2.1,22.3,4.2,33.7,6.3C1162.8,268.9,1162.8,265.3,1162.8,261.4z"/>
	<path class="st0" d="M672.4,149.1c2-11.4,3.9-22.5,5.8-33.7c0.1,0,0.2,0,0.3,0c0.2,0.6,0.4,1.2,0.5,1.8c1.6,8.7,3.2,17.4,4.7,26.2
		c0.2,1.1,0.6,1.8,1.9,1.8c0,3.2-0.1,6.3,0,9.4c0,1.4,0.2,2.9,0.6,4.2c2.3,7.8,4.7,15.6,6.9,23.5c1.5,5.3,2.3,10.8,2.6,16.3
		c0.4,6.7,1,13.4,1.5,20.4c2.5,0.2,5,0.1,7.4,0.1c2.4,0,4.8,0,7.2,0c2.5,0,4.9,0,7.7,0c1.2,6.8,2.3,13.6,3.5,20.5c1.8,0,3.6,0,5.6,0
		c0.2,3.3,0.1,6.3,0.1,9.4c0,3.1,0,6.2,0,9.4c1.5,0.1,2.7,0.2,4.2,0.3c0,3.7,0,7.3,0,11c0.9,0.2,1.6,0.4,2.4,0.6
		c0.1,0.9,0.2,1.8,0.3,2.8c1.3,0.7,2.9-0.3,4,1.1c0.8,1,2,1.8,3.3,2.8c1.4-2.4,2.7-4.6,4.1-7c1.4,1,2.7,1.9,3.8,2.9
		c0.4,0.4,0.6,1.1,0.6,1.7c0.1,1.8,0,3.5,0,5.5c2.4,1.4,4.8,2.8,7.2,4.1c1.2,0.6,1.7,1.4,1.7,2.8c-0.1,10.6,0,21.1,0,31.7
		c0,0.6-0.1,1.2-0.2,2c-52.5,0-104.8,0-157.5,0c0.7-16.7,1.4-33.4,2.1-50.3c1.5,0.7,2.3,1.7,3.1,2.7c1.3,1.5,2.7,2,4.6,1.9
		c2.2-0.2,4.5,0,7,0c0-6.5,0-12.9,0-19.4c2.5-0.2,4.7-0.4,7.1-0.7c0-5.1,0-10.1,0-15.2c1.9,0.2,3.6,0.4,5.5,0.5c1-8.1,2-16.1,3.1-24
		c0.2,0,0.3,0,0.5,0c0.4,1.3,0.9,2.6,1.4,4.1c6.4-0.2,12.7-0.3,19.4-0.5c0-2.3,0.1-4.5,0-6.7c-0.1-1.7,0.2-3,1.9-3.7
		c1-0.4,1-1.3,1-2.2c0-3.3,0.1-6.6,0-9.8c-0.3-5.7,0.8-11.1,1.8-16.6c0.3-1.6,0.6-3.3,1.3-5c0.7,1.5,1.4,3.1,2.3,5
		c0.3-0.8,0.5-1.3,0.6-1.7c1.4-5.7,2.8-11.5,4.1-17.3c0.3-1.2,0.3-2.4,0.3-3.6c0-3.3,0-6.7,0-10.4
		C670.6,148.1,671.3,148.5,672.4,149.1z"/>
</g>
<path class="st1" d="M-370.7,65.1"/>
</svg>
